name C:\Users\u0101727\Documents\MyRepositories\upper-imu-dc\Results\main_tracking\Case_44\FLX01_angularVelocities_bodyFrame.mot
datacolumns 4
datarows 47
range 2.01000000 2.47000000
endheader 
time	radius_imu_x	radius_imu_y	radius_imu_z	
          2.01000000	         -1.26384709	          0.18628692	          0.09190036	
          2.02000000	         -1.25537839	          0.19166790	          0.06314858	
          2.03000000	         -1.24622823	          0.19745541	          0.03466017	
          2.04000000	         -1.23639540	          0.20353582	          0.00652577	
          2.05000000	         -1.22588645	          0.20981348	         -0.02117565	
          2.06000000	         -1.21471641	          0.21621447	         -0.04837663	
          2.07000000	         -1.20290954	          0.22269043	         -0.07502132	
          2.08000000	         -1.19049954	          0.22922168	         -0.10106586	
          2.09000000	         -1.17752900	          0.23581831	         -0.12647904	
          2.10000000	         -1.16404776	          0.24251820	         -0.15124240	
          2.11000000	         -1.15011017	          0.24938150	         -0.17534948	
          2.12000000	         -1.13577176	          0.25648136	         -0.19880395	
          2.13000000	         -1.12108562	          0.26389208	         -0.22161678	
          2.14000000	         -1.10609955	          0.27167638	         -0.24380317	
          2.15000000	         -1.09085433	          0.27987493	         -0.26537980	
          2.16000000	         -1.07538341	          0.28850038	         -0.28636295	
          2.17000000	         -1.05971374	          0.29753682	         -0.30676708	
          2.18000000	         -1.04386719	          0.30694310	         -0.32660357	
          2.19000000	         -1.02786196	          0.31665787	         -0.34587934	
          2.20000000	         -1.01171391	          0.32660464	         -0.36459539	
          2.21000000	         -0.99543747	          0.33669618	         -0.38274569	
          2.22000000	         -0.97904663	          0.34683897	         -0.40031689	
          2.23000000	         -0.96255601	          0.35693845	         -0.41728956	
          2.24000000	         -0.94598177	          0.36690496	         -0.43364055	
          2.25000000	         -0.92934216	          0.37665920	         -0.44934600	
          2.26000000	         -0.91265696	          0.38613579	         -0.46438420	
          2.27000000	         -0.89594624	          0.39528422	         -0.47873737	
          2.28000000	         -0.87922873	          0.40406707	         -0.49239210	
          2.29000000	         -0.86252048	          0.41245595	         -0.50533869	
          2.30000000	         -0.84583432	          0.42042596	         -0.51756963	
          2.31000000	         -0.82918035	          0.42794982	         -0.52907796	
          2.32000000	         -0.81256732	          0.43499283	         -0.53985572	
          2.33000000	         -0.79600467	          0.44150993	         -0.54989322	
          2.34000000	         -0.77950494	          0.44744582	         -0.55917916	
          2.35000000	         -0.76308595	          0.45273874	         -0.56770210	
          2.36000000	         -0.74677214	          0.45732657	         -0.57545264	
          2.37000000	         -0.73059492	          0.46115378	         -0.58242596	
          2.38000000	         -0.71459219	          0.46417777	         -0.58862381	
          2.39000000	         -0.69880737	          0.46637351	         -0.59405574	
          2.40000000	         -0.68328844	          0.46773585	         -0.59873898	
          2.41000000	         -0.66808671	          0.46827920	         -0.60269749	
          2.42000000	         -0.65325548	          0.46803500	         -0.60596045	
          2.43000000	         -0.63884824	          0.46704796	         -0.60856084	
          2.44000000	         -0.62491671	          0.46537144	         -0.61053439	
          2.45000000	         -0.61150866	          0.46306264	         -0.61191881	
          2.46000000	         -0.59866585	          0.46017779	         -0.61275350	
          2.47000000	         -0.58642214	          0.45676785	         -0.61307929	
